<?xml version="1.0" encoding="UTF-8"?>
<svg id="Layer_1" data-name="Layer 1" xmlns="http://www.w3.org/2000/svg" viewBox="0 0 237.83 252.03">
  <defs>
    <style>
      .cls-1 {
        fill: #fff;
        stroke-width: 0px;
      }
    </style>
  </defs>
  <path class="cls-1" d="M237.59,91.11c-.05-.51-.08-1.03-.18-1.52-.1-.46-.21-1.21-.46-1.28-.52-.14-1.17,0-1.72.18-.7.21-1.34.58-2.03.85-3.58,1.37-7.68.75-11.07,2.88-.21.13-.62.17-.83.06-1.61-.91-2.88-.05-4.19.7-1.71.98-2.95.81-4.33-.56-1.28-1.27-1.82-3.41-4.45-3.19,2.61-2.49,2.52-3.16-.13-4.9-.7-.46-1.24-1.16-1.86-1.74-2.04-1.89-3.84-4.12-6.54-5.13-2.17-.82-3.85-2.04-4.65-4.3-.5-1.41-.97-2.86-1.68-4.18-.66-1.21-1.48-2.4-2.47-3.36-1.49-1.45-3.54-2.4-3.75-4.85-.09-1.03-.33-2.05-.42-3.09-.3-3.34-1.41-6.2-4.64-7.75-1.27-.61-2-1.72-1.76-2.88.3-1.46-.56-2.06-1.19-3.03-2.12-3.29-4.03-6.71-6.05-10.06-.59-.97-1.24-1.91-1.95-2.8-1.21-1.5-2.15-3.1-2.65-4.93l.38-.23,5.28,6.93c.21-.07.42-.14.63-.21.15-2.58,1.93-4.99.48-7.76-.56-1.07-1.13-2.16-1.55-3.29-.42-1.12-1.11-1.2-2.03-.75-1.65.8-3.12.39-4.58-.54-.51-.32-1.15-.66-1.72-.63-2.11.1-4.23.2-6.12,1.45-1.17.78-2.44.79-3.91.4-2.98-.78-5.88-2.14-9.13-1.64-.49.07-1.34-.39-1.58-.84-.66-1.23-1.67-1.07-2.76-1.15-1.22-.1-3.03-.07-3.52-.81-1.46-2.17-3.46-2.03-5.49-1.94-3.25.15-4.74,2-4.25,5.18.25,1.66-.55,2.56-1.87,3.34-1.29.76-2.11-.02-3.13-.58-2.02-1.1-3.95-2.63-6.43-2.41-1.74.15-2.59-.73-3.39-2.09-.49-.83-1.27-1.76-2.11-2.04-1.99-.66-4.1-.96-6.16-1.39-.67-.14-1.4-.1-2.01-.37-1.7-.74-3.37-1.56-5.02-2.41-.42-.22-.74-.64-1.18-1.03,1.24-1.13,2.41-2.06,3.39-3.17.47-.53,1-1.73.75-2.06-1.28-1.68-1.14-3.11.28-4.54.03-.03-.08-.19-.12-.29-.53-.06-1.38.06-1.53-.21-.75-1.38-2.02-1.25-3.04-.93-1.86.59-3.61.99-5.64.77-2.71-.3-5.39.68-8.24.42-2.9-.27-5.91.49-8.87.87-1.12.15-2.26.39-3.32.78-1.86.69-3.67,1.53-5.48,2.33-.36.16-.72.36-1.01.62-1.42,1.25-2.98,1.33-4.7.72-.57-.2-1.3-.41-1.82-.22-2.07.72-3.67.25-5.09-1.4-.93-1.09-1.85-.96-2.64.25-.64.96-1.12,2.04-1.82,2.94-.84,1.07-1.71,2.62-2.83,2.89-4.54,1.09-7.29,4.2-9.64,7.81-.64.98-.72,2.32-1.08,3.49-.21.66-.32,1.43-.72,1.95-2.57,3.36-6.03,5.37-10.07,6.51-.75.21-1.41.87-2.01,1.43-1.2,1.14-2.32,2.36-3.48,3.55-.93.96-1.92,1.86-2.77,2.89-1.39,1.68-2.68,3.45-4.02,5.18-.89,1.15-1.78,2.31-2.68,3.45-.88,1.12-1.67,2.32-2.66,3.33-1.68,1.7-1.83,3.68-.47,5.72.44.67.86,1.98.53,2.42-1.13,1.5-.49,3.06-.71,4.58-.37,2.65-1.28,5.21-1.82,7.84-.52,2.55-1.5,4.69-3.98,5.88-.06.03-.06.2-.09.31,1.5,1.55,2.03,2.84,1.71,4.52-.11.56-.31,1.16-.59,1.83-.65,1.52.17,2.62,1.29,3.4.76.53,1.77.71,2.25.89.86,1.34,1.43,2.49,2.24,3.44,1.05,1.25,2.4,2.25,3.4,3.53,1.01,1.29,1.91,2.62,1.82,4.53-.05,1,.81,2.34,1.65,3.04,2.53,2.12,5.28,3.98,7.91,5.99,1,.77,1.96,1.6,2.84,2.51,2.42,2.5,6.88,4.5,9.91,2.87,4.88-2.64,10.08-2.22,15.28-.83.78.21,1.74.26,2.48,0,2.21-.81,4.32-1.87,6.51-2.73,1.9-.74,3.82-1.53,5.81-1.95,2.13-.45,4.36-.45,6.54-.75,3.22-.45,4.92,1.01,6.04,4.56.71,2.24,1.43,2.91,3.79,2.7,1.46-.13,2.81-.91,4.42-.39.6.19,1.49-.53,2.49-.93,1.03.86,2.4,1.86,3.57,3.06.69.71,1.52,1.78,1.45,2.62-.16,1.91-.83,3.78-1.28,5.66-.1.43-.16.87-.21,1.32-.1.92.05,1.96-.32,2.75-.64,1.38-.16,3.28-1.89,4.17-.09.05-.05.55.07.78,1.17,2.37,2.38,4.65,4.39,6.53,3.12,2.93,6.62,5.63,7.59,10.25.29,1.4,1.42,2.61,1.79,4.01.64,2.46,2.83,4.7,1.28,7.54-.07.12-.02.35.04.5.39,1.08.7,2.2,1.22,3.22.85,1.64,2.02,3.17.8,5.13-.08.13.18.46.12.64-.33,1.04-.41,2.46-1.13,3.01-1.9,1.44-2.79,3.34-3.28,5.5-.62,2.75-1,5.55-1.68,8.29-.66,2.69-.56,5.17,1.11,7.5,1.24,1.73,2.47,3.49,3.58,5.31,1.56,2.55,3.02,5.17,4.48,7.78.27.49.42,1.07.52,1.63.94,4.85,1.7,9.75,2.88,14.55.43,1.73,1.83,3.25,2.88,4.79.99,1.45,2.24,2.75,3.15,4.24,1.32,2.15,2.38,4.45,3.66,6.62,1.29,2.2,1.23,3.64-.66,4.82.99,1.46,1.83,3.07,3.03,4.32.83.87,2.18,1.79,3.28,1.77,2.01-.03,4.07-.56,5.99-1.22,2.76-.96,5.48-1.35,8.34-.6.38.1.86-.05,1.27-.17,1.28-.4,2.54-1.16,3.83-1.2,2.14-.06,3.96-.57,5.47-2.08,3.66-3.69,8.12-6.58,10.83-11.22.74-1.27,2.15-2.15,3.19-3.26.58-.62,1.2-1.28,1.54-2.03.68-1.52,1.19-3.13,1.77-4.7.47-1.26.87-2.51-.36-3.61,1.57-1.99,3.82-2.44,5.96-3.04,1.83-.51,3.12-1.4,3.52-3.35.22-1.07.43-2.14.72-3.19.87-3.13-.45-5.86-1.68-8.53-.68-1.47-.72-2.01.69-2.98.83-.57,1.52-1.33,2.3-1.98.61-.51,1.26-.98,1.88-1.47.47-.37.99-.68,1.38-1.12,1.75-2,3.41-4.18,6.3-4.53,4.1-.5,6.13-3.56,8.12-6.56.89-1.34.93-2.99.8-4.78-.26-3.44-.77-7.04.93-10.34.67-1.3.11-2.14-.74-3.07-.57-.63-1-1.41-1.39-2.18-.33-.66-.38-1.48-.76-2.1-1.34-2.14-.51-4.38-.23-6.51.14-1.08.22-1.8-.72-2.29-1.34-.7-1.41-1.74-.9-2.91.94-2.19,1.9-4.38,2.97-6.5,1.02-2.02,1.7-4.21,3.61-5.76,1.66-1.35,2.97-3.13,4.5-4.66,1.25-1.26,1.92-2.92,3.48-4.02,2.98-2.09,5.75-4.48,8.54-6.82,1.31-1.09,2.56-2.27,3.7-3.53,1.68-1.86,3.23-3.83,4.83-5.76.65-.79,1.33-1.56,1.89-2.42.64-.98,1.26-2,1.72-3.07.89-2.1,1.5-4.32,2.5-6.36,1.12-2.28,3.04-4.22,2.81-7.05-.02-.21.08-.52.24-.63,1.26-.94.68-2.17.56-3.33Z"/>
  <path class="cls-1" d="M230.89,175.12c-.15-.38-.94-.88-1.14-.77-.42.22-.93.83-.9,1.25.13,1.84-1.19,2.89-2.36,3.54-1.6.89-1.54,2.1-1.66,3.61-.85.74-2.59.74-2.76,2.48,0,.08-.33.23-.44.18-2.22-.9-1.8.74-1.72,2.2-1.19-.97-2.19-1.32-3.19-.15-.16.19-.76-.06-1.09.06-1.02.38-2.19.63-2.97,1.32-.72.63-1.04,1.74-1.49,2.67-.22.45-.48.96-.46,1.43.05,1.38,0,2.82.4,4.12,1.19,3.96-1.14,6.57-3.34,9.21-1.29,1.54-1.5,3.02-.81,5.13.35,1.06.08,2.34.04,3.51-.02.48-.34,1.02-.21,1.43.66,2.06,1.98,3.55,3.91,4.61,1.52.84,2.39-.51,3.48-.85,1.63-.51,3.59-.59,4.51-2.72,2.53-5.88,5.47-11.59,7.85-17.52,1.77-4.4,4.39-8.59,4.33-13.59,0-.07.16-.13.33-.27.31.43.63.85.94,1.27h.6c.14-.72.42-1.47.38-2.19-.1-1.72-.22-3.47-.59-5.15-.36-1.65-1-3.25-1.63-4.82Z"/>
</svg>